<svg width="55" height="55" viewBox="0 0 55 55" fill="none" xmlns="http://www.w3.org/2000/svg">
<g clip-path="url(#clip0)">
<path d="M53.2065 29.8914H31.6848C30.6987 29.8914 29.8913 30.6946 29.8913 31.6849V53.2067C29.8913 54.1965 30.6951 54.9999 31.6848 54.9999H53.2066C54.1964 54.9999 55.0001 54.1964 55.0001 53.2067V31.6849C55 30.6946 54.1927 29.8914 53.2065 29.8914Z" fill="#2C9FD9"/>
<path d="M23.3152 29.8914H1.79352C0.807275 29.8914 0 30.6946 0 31.6849V53.2067C0 54.1965 0.80373 54.9999 1.79352 54.9999H23.3153C24.3051 54.9999 25.1088 54.1964 25.1088 53.2067V31.6849C25.1087 30.6946 24.3014 29.8914 23.3152 29.8914Z" fill="#32BBFF"/>
<path d="M1.7935 54.9999H23.3153C24.305 54.9999 25.1088 54.1962 25.1088 53.2067V31.6849C25.1088 31.1902 24.9071 30.7422 24.5824 30.4178L0.525818 54.4743C0.850554 54.7989 1.29872 54.9999 1.7935 54.9999Z" fill="#2C9FD9"/>
<path d="M23.3152 0.00100708H1.79352C0.807275 0.00100708 0 0.804308 0 1.79452V23.3163C0 24.3061 0.80373 25.1095 1.79352 25.1095H23.3153C24.3051 25.1095 25.1088 24.306 25.1088 23.3163V1.79452C25.1087 0.804308 24.3014 0.00100708 23.3152 0.00100708Z" fill="#2EE6E6"/>
<path d="M53.2065 0.000106812H31.6848C30.6987 0.000106812 29.8913 0.8033 29.8913 1.79362V23.3154C29.8913 24.3052 30.6951 25.1086 31.6848 25.1086H53.2066C54.1964 25.1086 55.0001 24.305 55.0001 23.3154V1.79362C55 0.803407 54.1927 0.000106812 53.2065 0.000106812Z" fill="#32BBFF"/>
<path d="M31.6848 25.1086H53.2066C54.1964 25.1086 55.0001 24.3048 55.0001 23.3154V1.79362C55.0001 1.29884 54.7985 0.850888 54.4737 0.526474L30.4171 24.583C30.7419 24.9076 31.19 25.1086 31.6848 25.1086Z" fill="#2C9FD9"/>
</g>
<defs>
<clipPath id="clip0">
<rect width="55" height="55" fill="white"/>
</clipPath>
</defs>
</svg>