<svg width="18" height="21" viewBox="0 0 18 21" fill="none" xmlns="http://www.w3.org/2000/svg">
<path d="M13.1493 0.711548C12.083 0.785297 10.8368 1.46779 10.1106 2.35654C9.44806 3.16278 8.90306 4.36028 9.11556 5.52402C10.2806 5.56027 11.4843 4.86152 12.1818 3.95778C12.8343 3.11653 13.328 1.92654 13.1493 0.711548Z" fill="#9A9A9A"/>
<path d="M17.3629 7.42156C16.3391 6.13782 14.9004 5.39282 13.5417 5.39282C11.7479 5.39282 10.9892 6.25157 9.74294 6.25157C8.45795 6.25157 7.4817 5.39532 5.93046 5.39532C4.40672 5.39532 2.78423 6.32657 1.75549 7.91906C0.309244 10.1615 0.556743 14.3778 2.90048 17.969C3.73922 19.254 4.85922 20.699 6.32421 20.7115C7.62795 20.724 7.99545 19.8752 9.76169 19.8665C11.5279 19.8565 11.8629 20.7227 13.1642 20.709C14.6304 20.6977 15.8117 19.0965 16.6504 17.8115C17.2516 16.8903 17.4754 16.4265 17.9416 15.3865C14.5504 14.0953 14.0067 9.2728 17.3629 7.42156Z" fill="#9A9A9A"/>
</svg>
