<svg width="65" height="51" viewBox="0 0 65 51" fill="none" xmlns="http://www.w3.org/2000/svg">
<g clip-path="url(#clip0)">
<path d="M32.4528 51.0001C35.4784 49.1212 38.6515 47.491 41.9408 46.1255V28.5965C41.9406 28.4137 42.0028 28.2363 42.1171 28.0936C42.2313 27.9508 42.3908 27.8513 42.5692 27.8115C42.6874 27.7849 42.8101 27.7852 42.9282 27.8125C43.0462 27.8398 43.1567 27.8933 43.2512 27.9691C43.3458 28.0448 43.4221 28.1409 43.4745 28.2502C43.5269 28.3594 43.554 28.4791 43.5538 28.6003V45.4785C46.6385 44.2917 49.8107 43.3465 53.0419 42.6514V28.5947C53.0417 28.4742 53.0687 28.3552 53.1208 28.2465C53.1729 28.1379 53.2488 28.0423 53.3428 27.967C53.4368 27.8916 53.5465 27.8383 53.6639 27.8111C53.7813 27.7838 53.9033 27.7833 54.0209 27.8096H54.0414C54.217 27.8486 54.3741 27.9464 54.4866 28.0868C54.5992 28.2271 54.6605 28.4017 54.6605 28.5816V42.3307C56.6297 41.9577 58.6064 41.6849 60.5905 41.5121C61.562 41.4303 62.4674 40.9866 63.1274 40.269C63.7874 39.5513 64.1538 38.612 64.1541 37.637V32.7886C64.1541 23.901 56.8814 16.4568 47.9939 16.6283C43.8439 16.7094 39.8913 18.4151 36.9853 21.3789C34.0794 24.3428 32.452 28.3282 32.4528 32.479V51.0001Z" fill="#ED174E"/>
<path d="M32.4527 51.0001C29.4267 49.122 26.2537 47.4918 22.9647 46.1255V28.5965C22.9649 28.4137 22.9027 28.2363 22.7885 28.0936C22.6742 27.9508 22.5147 27.8513 22.3363 27.8115C22.2182 27.7852 22.0957 27.7858 21.9779 27.8132C21.8601 27.8407 21.7499 27.8942 21.6556 27.97C21.5612 28.0457 21.4851 28.1416 21.4328 28.2507C21.3806 28.3598 21.3535 28.4793 21.3535 28.6003V45.4785C18.2686 44.2925 15.0965 43.3474 11.8655 42.6514V28.6003C11.8657 28.4791 11.8386 28.3594 11.7862 28.2502C11.7338 28.1409 11.6575 28.0448 11.5629 27.9691C11.4684 27.8933 11.3579 27.8398 11.2399 27.8125C11.1218 27.7852 10.9991 27.7849 10.8809 27.8115H10.866C10.6905 27.8508 10.5336 27.9487 10.4211 28.089C10.3086 28.2293 10.2472 28.4036 10.2469 28.5835V42.3307C8.27768 41.9577 6.301 41.6849 4.31687 41.5121C3.345 41.4307 2.43914 40.9872 1.77878 40.2696C1.11842 39.5519 0.751745 38.6123 0.751404 37.637L0.751404 32.7886C0.751404 23.901 8.02407 16.4586 16.9098 16.6283C21.0601 16.7089 25.0131 18.4144 27.9195 21.3783C30.8259 24.3422 32.4535 28.3279 32.4527 32.479V51.0001Z" fill="#EE9623"/>
<path d="M15.9979 12.8093C16.1154 12.8093 16.2329 12.8093 16.3522 12.8093C21.2555 12.8916 25.9282 14.9053 29.3554 18.4129C30.3585 19.4327 31.2425 20.5631 31.9903 21.7826C32.0387 21.8613 32.1064 21.9262 32.1871 21.9713C32.2677 22.0164 32.3585 22.04 32.4509 22.04C32.5433 22.04 32.6341 22.0164 32.7147 21.9713C32.7954 21.9262 32.8631 21.8613 32.9115 21.7826C33.6586 20.5632 34.542 19.4327 35.5446 18.4129C38.9722 14.906 43.6446 12.8924 48.5477 12.8093C48.6671 12.8093 48.7845 12.8093 48.902 12.8093C52.7678 12.8062 56.5349 14.029 59.6618 16.302C59.7636 16.3769 59.8882 16.4139 60.0144 16.4067C60.1405 16.3995 60.2601 16.3486 60.3527 16.2626C60.4453 16.1767 60.5049 16.0611 60.5215 15.9359C60.538 15.8107 60.5103 15.6836 60.4432 15.5766C57.4884 10.8135 53.367 6.88329 48.4691 4.15789C43.5712 1.43249 38.0588 0.00209045 32.4537 0.00209045C26.8486 0.00209045 21.3362 1.43249 16.4383 4.15789C11.5403 6.88329 7.41896 10.8135 4.4642 15.5766C4.39799 15.6834 4.37092 15.81 4.38763 15.9345C4.40433 16.0591 4.46376 16.1741 4.55578 16.2597C4.6478 16.3453 4.76669 16.3964 4.89215 16.4041C5.01761 16.4118 5.14186 16.3757 5.24368 16.302C8.36934 14.0307 12.1342 12.808 15.9979 12.8093Z" fill="#EE9623"/>
</g>
<defs>
<clipPath id="clip0">
<rect width="63.4027" height="51" fill="white" transform="translate(0.751404)"/>
</clipPath>
</defs>
</svg>