<svg width="12" height="15" viewBox="0 0 12 15" fill="none" xmlns="http://www.w3.org/2000/svg"><mask id="a" mask-type="alpha" maskUnits="userSpaceOnUse" x="0" y="9" width="12" height="6"><path fill-rule="evenodd" clip-rule="evenodd" d="M0 9.519h12v5.195H0V9.52z" fill="#fff"/></mask><path fill-rule="evenodd" clip-rule="evenodd" d="M6 10.575c-3.227 0-4.864.516-4.864 1.534 0 1.028 1.637 1.548 4.865 1.548 3.227 0 4.863-.515 4.863-1.534 0-1.027-1.636-1.548-4.863-1.548zm0 4.14c-1.483 0-6 0-6-2.606 0-2.322 3.425-2.59 6-2.59 1.485 0 6 0 6 2.604 0 2.323-3.424 2.591-6 2.591z" fill="#C0C0C0" mask="url(#a)"/><mask id="b" mask-type="alpha" maskUnits="userSpaceOnUse" x="1" y="0" width="10" height="9"><path fill-rule="evenodd" clip-rule="evenodd" d="M1.977.714h8.046v7.482H1.977V.714z" fill="#fff"/></mask><path fill-rule="evenodd" clip-rule="evenodd" d="M6 1.72C4.38 1.72 3.06 2.947 3.06 4.455c-.005 1.504 1.305 2.73 2.92 2.735L6 7.694V7.19c1.62 0 2.94-1.227 2.94-2.735C8.94 2.947 7.62 1.72 6 1.72zm0 6.476h-.024C3.763 8.189 1.97 6.51 1.977 4.453c0-2.06 1.805-3.74 4.024-3.74 2.218 0 4.022 1.68 4.022 3.742 0 2.063-1.804 3.74-4.022 3.74z" fill="#C0C0C0" mask="url(#b)"/></svg>