<svg width="12" height="15" viewBox="0 0 12 15" fill="none" xmlns="http://www.w3.org/2000/svg">
<mask id="mask0" mask-type="alpha" maskUnits="userSpaceOnUse" x="0" y="9" width="12" height="6">
<path fill-rule="evenodd" clip-rule="evenodd" d="M0 9.51855H12V14.7141H0V9.51855Z" fill="white"/>
</mask>
<g mask="url(#mask0)">
<path fill-rule="evenodd" clip-rule="evenodd" d="M6.00071 10.5754C2.77266 10.5754 1.13629 11.0912 1.13629 12.1093C1.13629 13.1366 2.77266 13.6573 6.00071 13.6573C9.228 13.6573 10.8636 13.1415 10.8636 12.1234C10.8636 11.0961 9.228 10.5754 6.00071 10.5754ZM6.00069 14.7141C4.51659 14.7141 -0.000106812 14.7141 -0.000106812 12.1093C-0.000106812 9.787 3.42491 9.51855 6.00069 9.51855C7.48479 9.51855 12 9.51855 12 12.1234C12 14.4457 8.57571 14.7141 6.00069 14.7141Z" fill="#C0C0C0"/>
</g>
<mask id="mask1" mask-type="alpha" maskUnits="userSpaceOnUse" x="1" y="0" width="10" height="9">
<path fill-rule="evenodd" clip-rule="evenodd" d="M1.97719 0.714355H10.0227V8.19601H1.97719V0.714355Z" fill="white"/>
</mask>
<g mask="url(#mask1)">
<path fill-rule="evenodd" clip-rule="evenodd" d="M6.00071 1.72012C4.37873 1.72012 3.05903 2.9468 3.05903 4.4553C3.05373 5.95887 4.36358 7.18484 5.97874 7.19048L6.00071 7.69355V7.19048C7.62194 7.19048 8.94088 5.9631 8.94088 4.4553C8.94088 2.9468 7.62194 1.72012 6.00071 1.72012ZM6.00072 8.1958H5.97648C3.76283 8.18946 1.96964 6.51045 1.97721 4.45307C1.97721 2.39218 3.78177 0.713867 6.00072 0.713867C8.21892 0.713867 10.0227 2.39218 10.0227 4.45519C10.0227 6.5182 8.21892 8.1958 6.00072 8.1958Z" fill="#C0C0C0"/>
</g>
</svg>
