<svg width="24" height="24" viewBox="0 0 24 24" fill="none" xmlns="http://www.w3.org/2000/svg">
<path d="M0.999878 2.5H2.65412C3.13251 2.5 3.3717 2.5 3.56616 2.58674C3.73758 2.66321 3.88403 2.78638 3.98873 2.94217C4.10751 3.11888 4.14849 3.35454 4.23046 3.82585L4.60857 6M4.60857 6L5.49161 11.0774C5.67078 12.1077 5.76037 12.6228 6.0257 12.9939C6.25933 13.3207 6.58594 13.5695 6.96299 13.708C7.3912 13.8654 7.91164 13.815 8.95252 13.7143L18.6139 12.7793C19.6297 12.681 20.1376 12.6318 20.522 12.4033C20.8652 12.1993 21.1394 11.8972 21.3094 11.536C21.4999 11.1314 21.4999 10.6211 21.4999 9.6005V9.6005C21.4999 8.51582 21.4999 7.97348 21.2921 7.55394C21.1067 7.17971 20.8088 6.8729 20.4403 6.67654C20.027 6.4564 19.4849 6.44036 18.4007 6.40826L4.60857 6Z" stroke="#EE9623" stroke-width="1.8" stroke-linecap="round" stroke-linejoin="round"/>
<circle cx="8.49988" cy="19" r="2" stroke="#EE9623" stroke-width="1.8"/>
<circle cx="17.9999" cy="19" r="2" stroke="#EE9623" stroke-width="1.8"/>
</svg>
