<svg width="16" height="17" viewBox="0 0 16 17" fill="none" xmlns="http://www.w3.org/2000/svg"><path fill-rule="evenodd" clip-rule="evenodd" d="M1.25 4.437c0-2.042.022-2.723 2.722-2.723s2.722.68 2.722 2.723c0 2.041.01 2.722-2.722 2.722-2.73 0-2.722-.68-2.722-2.722zM9.806 4.437c0-2.042.021-2.723 2.722-2.723 2.7 0 2.722.68 2.722 2.723 0 2.041.009 2.722-2.722 2.722s-2.722-.68-2.722-2.722zM1.25 12.992c0-2.042.022-2.722 2.722-2.722s2.722.68 2.722 2.722.01 2.722-2.722 2.722c-2.73 0-2.722-.68-2.722-2.722zM9.806 12.992c0-2.042.021-2.722 2.722-2.722 2.7 0 2.722.68 2.722 2.722s.009 2.722-2.722 2.722-2.722-.68-2.722-2.722z" stroke="#C0C0C0" stroke-width="1.5" stroke-linecap="round" stroke-linejoin="round"/></svg>