<svg width="16" height="17" viewBox="0 0 16 17" fill="none" xmlns="http://www.w3.org/2000/svg">
<path fill-rule="evenodd" clip-rule="evenodd" d="M1.25 4.43658C1.25 2.39475 1.27186 1.71436 3.97222 1.71436C6.67258 1.71436 6.69444 2.39475 6.69444 4.43658C6.69444 6.47841 6.70306 7.1588 3.97222 7.1588C1.24139 7.1588 1.25 6.47841 1.25 4.43658Z" stroke="#C0C0C0" stroke-width="1.5" stroke-linecap="round" stroke-linejoin="round"/>
<path fill-rule="evenodd" clip-rule="evenodd" d="M9.80556 4.43658C9.80556 2.39475 9.82742 1.71436 12.5278 1.71436C15.2281 1.71436 15.25 2.39475 15.25 4.43658C15.25 6.47841 15.2586 7.1588 12.5278 7.1588C9.79695 7.1588 9.80556 6.47841 9.80556 4.43658Z" stroke="#C0C0C0" stroke-width="1.5" stroke-linecap="round" stroke-linejoin="round"/>
<path fill-rule="evenodd" clip-rule="evenodd" d="M1.25 12.9922C1.25 10.9504 1.27186 10.27 3.97222 10.27C6.67258 10.27 6.69444 10.9504 6.69444 12.9922C6.69444 15.0341 6.70306 15.7145 3.97222 15.7145C1.24139 15.7145 1.25 15.0341 1.25 12.9922Z" stroke="#C0C0C0" stroke-width="1.5" stroke-linecap="round" stroke-linejoin="round"/>
<path fill-rule="evenodd" clip-rule="evenodd" d="M9.80556 12.9922C9.80556 10.9504 9.82742 10.27 12.5278 10.27C15.2281 10.27 15.25 10.9504 15.25 12.9922C15.25 15.0341 15.2586 15.7145 12.5278 15.7145C9.79695 15.7145 9.80556 15.0341 9.80556 12.9922Z" stroke="#C0C0C0" stroke-width="1.5" stroke-linecap="round" stroke-linejoin="round"/>
</svg>
