<svg width="15" height="15" viewBox="0 0 15 15" fill="none" xmlns="http://www.w3.org/2000/svg"><g clip-path="url(#a)" fill="#C0C0C0"><path d="M11.967.714H2.533A2.285 2.285 0 0 0 .25 2.997v9.435a2.285 2.285 0 0 0 2.283 2.282h9.434a2.285 2.285 0 0 0 2.283-2.282V2.997A2.285 2.285 0 0 0 11.967.714zm1.37 11.718c0 .755-.614 1.37-1.37 1.37H2.533c-.756 0-1.37-.615-1.37-1.37V2.997c0-.755.614-1.37 1.37-1.37h9.434c.756 0 1.37.615 1.37 1.37v9.435z"/><path d="M3.598 9.997c-.755 0-1.37.614-1.37 1.37 0 .755.615 1.37 1.37 1.37.755 0 1.37-.615 1.37-1.37 0-.756-.615-1.37-1.37-1.37zm0 1.826a.457.457 0 1 1 0-.914.457.457 0 0 1 0 .914zM3.598 2.692c-.755 0-1.37.615-1.37 1.37 0 .755.615 1.37 1.37 1.37a5.942 5.942 0 0 1 5.935 5.934c0 .755.614 1.37 1.37 1.37.754 0 1.369-.615 1.369-1.37 0-4.782-3.891-8.674-8.674-8.674zm7.304 9.13a.457.457 0 0 1-.456-.456 6.856 6.856 0 0 0-6.848-6.848.457.457 0 0 1 0-.913c4.28 0 7.76 3.482 7.76 7.761a.457.457 0 0 1-.456.457z"/><path d="M3.598 6.345c-.755 0-1.37.614-1.37 1.37 0 .754.615 1.369 1.37 1.369a2.285 2.285 0 0 1 2.282 2.283c0 .755.615 1.369 1.37 1.369.755 0 1.37-.614 1.37-1.37a5.027 5.027 0 0 0-5.022-5.021zm3.652 5.478a.457.457 0 0 1-.457-.457 3.2 3.2 0 0 0-3.195-3.195.457.457 0 0 1 0-.913 4.113 4.113 0 0 1 4.109 4.108.457.457 0 0 1-.457.457z"/></g><defs><clipPath id="a"><path fill="#fff" transform="translate(.25 .714)" d="M0 0h14v14H0z"/></clipPath></defs></svg>