<svg width="15" height="15" viewBox="0 0 15 15" fill="none" xmlns="http://www.w3.org/2000/svg">
<g clip-path="url(#clip0)">
<path d="M11.9674 0.714355H2.5326C1.27397 0.714355 0.25 1.73832 0.25 2.99696V12.4317C0.25 13.6904 1.27397 14.7144 2.5326 14.7144H11.9674C13.226 14.7144 14.25 13.6904 14.25 12.4318V2.99696C14.25 1.73832 13.226 0.714355 11.9674 0.714355ZM13.337 12.4318C13.337 13.1869 12.7226 13.8013 11.9674 13.8013H2.5326C1.77742 13.8013 1.16304 13.1869 1.16304 12.4318V2.99696C1.16304 2.24178 1.77742 1.62739 2.5326 1.62739H11.9674C12.7226 1.62739 13.3369 2.24178 13.3369 2.99696V12.4318H13.337Z" fill="#C0C0C0"/>
<path d="M3.59783 9.99707C2.84266 9.99707 2.22827 10.6115 2.22827 11.3666C2.22827 12.1218 2.84266 12.7362 3.59783 12.7362C4.35301 12.7362 4.9674 12.1218 4.9674 11.3666C4.9674 10.6115 4.35301 9.99707 3.59783 9.99707ZM3.59783 11.8232C3.34611 11.8232 3.1413 11.6184 3.1413 11.3666C3.1413 11.1149 3.34611 10.9101 3.59783 10.9101C3.84956 10.9101 4.05436 11.1149 4.05436 11.3666C4.05434 11.6184 3.84956 11.8232 3.59783 11.8232Z" fill="#C0C0C0"/>
<path d="M3.59784 2.69238C2.84266 2.69238 2.22827 3.30677 2.22827 4.06195C2.22827 4.81713 2.84266 5.43152 3.59784 5.43152C6.87028 5.43152 9.53261 8.09387 9.53261 11.3663C9.53261 12.1215 10.147 12.7359 10.9022 12.7359C11.6574 12.7359 12.2717 12.1215 12.2717 11.3663C12.2717 6.58351 8.38061 2.69238 3.59784 2.69238ZM10.9022 11.8228C10.6504 11.8228 10.4456 11.618 10.4456 11.3663C10.4456 7.59039 7.37371 4.51845 3.59781 4.51845C3.34608 4.51845 3.14128 4.31365 3.14128 4.06192C3.14128 3.8102 3.34608 3.60539 3.59781 3.60539C7.87716 3.60539 11.3587 7.08691 11.3587 11.3663C11.3587 11.618 11.1539 11.8228 10.9022 11.8228Z" fill="#C0C0C0"/>
<path d="M3.59784 6.34473C2.84266 6.34473 2.22827 6.95911 2.22827 7.71429C2.22827 8.46947 2.84266 9.08386 3.59784 9.08386C4.85647 9.08386 5.88044 10.1078 5.88044 11.3665C5.88044 12.1216 6.49483 12.736 7.25001 12.736C8.00519 12.736 8.61957 12.1216 8.61957 11.3665C8.61957 8.59747 6.36683 6.34473 3.59784 6.34473ZM7.25001 11.823C6.99828 11.823 6.79347 11.6182 6.79347 11.3665C6.79347 9.60438 5.3599 8.1708 3.59781 8.1708C3.34608 8.1708 3.14128 7.96599 3.14128 7.71427C3.14128 7.46254 3.34608 7.25773 3.59781 7.25773C5.86335 7.25773 7.70651 9.10089 7.70651 11.3664C7.70654 11.6182 7.50173 11.823 7.25001 11.823Z" fill="#C0C0C0"/>
</g>
<defs>
<clipPath id="clip0">
<rect width="14" height="14" fill="white" transform="translate(0.25 0.714355)"/>
</clipPath>
</defs>
</svg>
