<svg width="15" height="15" viewBox="0 0 15 15" fill="none" xmlns="http://www.w3.org/2000/svg">
<path d="M5.39538 13.8618V11.715C5.39537 11.171 5.86102 10.7291 6.43779 10.7256H8.55561C9.13496 10.7256 9.60462 11.1686 9.60462 11.715V13.8556C9.60461 14.3275 10.0082 14.7109 10.5085 14.7143H11.9533C12.6282 14.716 13.2759 14.4643 13.7537 14.0148C14.2315 13.5654 14.5 12.9551 14.5 12.3186V6.22045C14.5 5.70633 14.2584 5.21865 13.8402 4.88881L8.93167 1.18634C8.07364 0.538741 6.84817 0.559661 6.01555 1.23612L1.21254 4.88881C0.774651 5.20893 0.512933 5.69805 0.5 6.22045V12.3124C0.5 13.639 1.64018 14.7143 3.04665 14.7143H4.45853C4.69939 14.716 4.93099 14.6269 5.10193 14.4669C5.27286 14.3068 5.369 14.089 5.36899 13.8618H5.39538Z" fill="#F9004B"/>
</svg>
