<svg xmlns="http://www.w3.org/2000/svg"><symbol viewBox="0 0 12 14.714667" id="src-1">
<mask id="mask0" mask-type="alpha" maskUnits="userSpaceOnUse" x="0" y="9" width="12" height="6">
<path fill-rule="evenodd" clip-rule="evenodd" d="M0 9.51855H12V14.7141H0V9.51855Z" fill="white"/>
</mask>
<g mask="url(#mask0)">
<path fill-rule="evenodd" clip-rule="evenodd" d="M6.00071 10.5754C2.77266 10.5754 1.13629 11.0912 1.13629 12.1093C1.13629 13.1366 2.77266 13.6573 6.00071 13.6573C9.228 13.6573 10.8636 13.1415 10.8636 12.1234C10.8636 11.0961 9.228 10.5754 6.00071 10.5754ZM6.00069 14.7141C4.51659 14.7141 -0.000106812 14.7141 -0.000106812 12.1093C-0.000106812 9.787 3.42491 9.51855 6.00069 9.51855C7.48479 9.51855 12 9.51855 12 12.1234C12 14.4457 8.57571 14.7141 6.00069 14.7141Z" fill="#C0C0C0"/>
</g>
<mask id="mask1" mask-type="alpha" maskUnits="userSpaceOnUse" x="1" y="0" width="10" height="9">
<path fill-rule="evenodd" clip-rule="evenodd" d="M1.97719 0.714355H10.0227V8.19601H1.97719V0.714355Z" fill="white"/>
</mask>
<g mask="url(#mask1)">
<path fill-rule="evenodd" clip-rule="evenodd" d="M6.00071 1.72012C4.37873 1.72012 3.05903 2.9468 3.05903 4.4553C3.05373 5.95887 4.36358 7.18484 5.97874 7.19048L6.00071 7.69355V7.19048C7.62194 7.19048 8.94088 5.9631 8.94088 4.4553C8.94088 2.9468 7.62194 1.72012 6.00071 1.72012ZM6.00072 8.1958H5.97648C3.76283 8.18946 1.96964 6.51045 1.97721 4.45307C1.97721 2.39218 3.78177 0.713867 6.00072 0.713867C8.21892 0.713867 10.0227 2.39218 10.0227 4.45519C10.0227 6.5182 8.21892 8.1958 6.00072 8.1958Z" fill="#C0C0C0"/>
</g>
</symbol><symbol viewBox="0 0 15.250667 15.714667" id="src-2">
<path fill-rule="evenodd" clip-rule="evenodd" d="M1.25 4.43658C1.25 2.39475 1.27186 1.71436 3.97222 1.71436C6.67258 1.71436 6.69444 2.39475 6.69444 4.43658C6.69444 6.47841 6.70306 7.1588 3.97222 7.1588C1.24139 7.1588 1.25 6.47841 1.25 4.43658Z" stroke="#C0C0C0" stroke-width="1.5" stroke-linecap="round" stroke-linejoin="round"/>
<path fill-rule="evenodd" clip-rule="evenodd" d="M9.80556 4.43658C9.80556 2.39475 9.82742 1.71436 12.5278 1.71436C15.2281 1.71436 15.25 2.39475 15.25 4.43658C15.25 6.47841 15.2586 7.1588 12.5278 7.1588C9.79695 7.1588 9.80556 6.47841 9.80556 4.43658Z" stroke="#C0C0C0" stroke-width="1.5" stroke-linecap="round" stroke-linejoin="round"/>
<path fill-rule="evenodd" clip-rule="evenodd" d="M1.25 12.9922C1.25 10.9504 1.27186 10.27 3.97222 10.27C6.67258 10.27 6.69444 10.9504 6.69444 12.9922C6.69444 15.0341 6.70306 15.7145 3.97222 15.7145C1.24139 15.7145 1.25 15.0341 1.25 12.9922Z" stroke="#C0C0C0" stroke-width="1.5" stroke-linecap="round" stroke-linejoin="round"/>
<path fill-rule="evenodd" clip-rule="evenodd" d="M9.80556 12.9922C9.80556 10.9504 9.82742 10.27 12.5278 10.27C15.2281 10.27 15.25 10.9504 15.25 12.9922C15.25 15.0341 15.2586 15.7145 12.5278 15.7145C9.79695 15.7145 9.80556 15.0341 9.80556 12.9922Z" stroke="#C0C0C0" stroke-width="1.5" stroke-linecap="round" stroke-linejoin="round"/>
</symbol><symbol viewBox="0 0 14.999622 14.346667" id="src-3">
<path fill-rule="evenodd" clip-rule="evenodd" d="M1.27405 7.41909C0.483296 4.95029 1.40744 2.1285 3.99931 1.29353C5.36267 0.853564 6.86753 1.11297 8.00097 1.96563C9.07324 1.13655 10.6334 0.856512 11.9953 1.29353C14.5871 2.1285 15.5172 4.95029 14.7272 7.41909C13.4964 11.3323 8.00097 14.3465 8.00097 14.3465C8.00097 14.3465 2.54603 11.378 1.27405 7.41909Z" stroke="#C0C0C0" stroke-width="1.5" stroke-linecap="round" stroke-linejoin="round"/>
<path d="M10.9489 3.80908C11.7374 4.06407 12.2946 4.76786 12.3616 5.59399" stroke="#C0C0C0" stroke-width="1.5" stroke-linecap="round" stroke-linejoin="round"/>
</symbol><symbol viewBox="0 0 14.250667 14.714667" id="src-4">
<g clip-path="url(#clip0)">
<path d="M11.9674 0.714355H2.5326C1.27397 0.714355 0.25 1.73832 0.25 2.99696V12.4317C0.25 13.6904 1.27397 14.7144 2.5326 14.7144H11.9674C13.226 14.7144 14.25 13.6904 14.25 12.4318V2.99696C14.25 1.73832 13.226 0.714355 11.9674 0.714355ZM13.337 12.4318C13.337 13.1869 12.7226 13.8013 11.9674 13.8013H2.5326C1.77742 13.8013 1.16304 13.1869 1.16304 12.4318V2.99696C1.16304 2.24178 1.77742 1.62739 2.5326 1.62739H11.9674C12.7226 1.62739 13.3369 2.24178 13.3369 2.99696V12.4318H13.337Z" fill="#C0C0C0"/>
<path d="M3.59783 9.99707C2.84266 9.99707 2.22827 10.6115 2.22827 11.3666C2.22827 12.1218 2.84266 12.7362 3.59783 12.7362C4.35301 12.7362 4.9674 12.1218 4.9674 11.3666C4.9674 10.6115 4.35301 9.99707 3.59783 9.99707ZM3.59783 11.8232C3.34611 11.8232 3.1413 11.6184 3.1413 11.3666C3.1413 11.1149 3.34611 10.9101 3.59783 10.9101C3.84956 10.9101 4.05436 11.1149 4.05436 11.3666C4.05434 11.6184 3.84956 11.8232 3.59783 11.8232Z" fill="#C0C0C0"/>
<path d="M3.59784 2.69238C2.84266 2.69238 2.22827 3.30677 2.22827 4.06195C2.22827 4.81713 2.84266 5.43152 3.59784 5.43152C6.87028 5.43152 9.53261 8.09387 9.53261 11.3663C9.53261 12.1215 10.147 12.7359 10.9022 12.7359C11.6574 12.7359 12.2717 12.1215 12.2717 11.3663C12.2717 6.58351 8.38061 2.69238 3.59784 2.69238ZM10.9022 11.8228C10.6504 11.8228 10.4456 11.618 10.4456 11.3663C10.4456 7.59039 7.37371 4.51845 3.59781 4.51845C3.34608 4.51845 3.14128 4.31365 3.14128 4.06192C3.14128 3.8102 3.34608 3.60539 3.59781 3.60539C7.87716 3.60539 11.3587 7.08691 11.3587 11.3663C11.3587 11.618 11.1539 11.8228 10.9022 11.8228Z" fill="#C0C0C0"/>
<path d="M3.59784 6.34473C2.84266 6.34473 2.22827 6.95911 2.22827 7.71429C2.22827 8.46947 2.84266 9.08386 3.59784 9.08386C4.85647 9.08386 5.88044 10.1078 5.88044 11.3665C5.88044 12.1216 6.49483 12.736 7.25001 12.736C8.00519 12.736 8.61957 12.1216 8.61957 11.3665C8.61957 8.59747 6.36683 6.34473 3.59784 6.34473ZM7.25001 11.823C6.99828 11.823 6.79347 11.6182 6.79347 11.3665C6.79347 9.60438 5.3599 8.1708 3.59781 8.1708C3.34608 8.1708 3.14128 7.96599 3.14128 7.71427C3.14128 7.46254 3.34608 7.25773 3.59781 7.25773C5.86335 7.25773 7.70651 9.10089 7.70651 11.3664C7.70654 11.6182 7.50173 11.823 7.25001 11.823Z" fill="#C0C0C0"/>
</g>
<defs>
<clipPath id="clip0">
<rect width="14" height="14" fill="white" transform="translate(0.25 0.714355)"/>
</clipPath>
</defs>
</symbol><symbol viewBox="0 0 14.5 14.714668" id="src-5">
<path d="M5.39538 13.8618V11.715C5.39537 11.171 5.86102 10.7291 6.43779 10.7256H8.55561C9.13496 10.7256 9.60462 11.1686 9.60462 11.715V13.8556C9.60461 14.3275 10.0082 14.7109 10.5085 14.7143H11.9533C12.6282 14.716 13.2759 14.4643 13.7537 14.0148C14.2315 13.5654 14.5 12.9551 14.5 12.3186V6.22045C14.5 5.70633 14.2584 5.21865 13.8402 4.88881L8.93167 1.18634C8.07364 0.538741 6.84817 0.559661 6.01555 1.23612L1.21254 4.88881C0.774651 5.20893 0.512933 5.69805 0.5 6.22045V12.3124C0.5 13.639 1.64018 14.7143 3.04665 14.7143H4.45853C4.69939 14.716 4.93099 14.6269 5.10193 14.4669C5.27286 14.3068 5.369 14.089 5.36899 13.8618H5.39538Z" fill="#F9004B"/>
</symbol></svg>