<svg width="17" height="20" viewBox="0 0 17 20" fill="none" xmlns="http://www.w3.org/2000/svg">
<g clip-path="url(#clip0)">
<path d="M8.19982 8.64012C8.54791 8.64012 8.88819 8.5369 9.17762 8.3435C9.46705 8.15011 9.69264 7.87524 9.82585 7.55364C9.95906 7.23204 9.99391 6.87817 9.926 6.53676C9.85809 6.19535 9.69047 5.88175 9.44433 5.63561C9.19819 5.38947 8.88458 5.22185 8.54318 5.15394C8.20177 5.08603 7.84789 5.12088 7.5263 5.25409C7.2047 5.3873 6.92982 5.61288 6.73643 5.90231C6.54304 6.19174 6.43982 6.53202 6.43982 6.88012C6.43982 7.11124 6.48534 7.34011 6.57379 7.55364C6.66224 7.76717 6.79188 7.96119 6.95531 8.12463C7.11874 8.28806 7.31276 8.4177 7.5263 8.50615C7.73983 8.59459 7.96869 8.64012 8.19982 8.64012Z" fill="#5A5A5A"/>
<path d="M12.5699 12.3601L13.0999 11.8301C13.9229 11.0142 14.525 10.0025 14.8499 8.89009C15.1287 7.93897 15.2002 6.93912 15.0597 5.958C14.9191 4.97689 14.5697 4.03733 14.0351 3.20275C13.5005 2.36816 12.7931 1.65796 11.9606 1.12006C11.1281 0.582174 10.19 0.229109 9.20942 0.0846977C8.22886 -0.0597141 7.22874 0.00788662 6.27653 0.282938C5.32433 0.557989 4.4422 1.03409 3.68968 1.67912C2.93716 2.32414 2.33176 3.12308 1.91432 4.02202C1.49688 4.92096 1.27712 5.89898 1.26988 6.89009C1.26905 7.56658 1.36331 8.23983 1.54988 8.89009C1.88104 9.99975 2.48234 11.0099 3.29988 11.8301L3.82988 12.3601C1.49988 13.0601 -0.00012207 14.3001 -0.00012207 15.7901C-0.00012207 18.0801 3.52988 19.7901 8.19988 19.7901C12.8699 19.7901 16.3999 18.0701 16.3999 15.7901C16.3999 14.3001 14.8999 13.0601 12.5699 12.3601ZM3.16988 8.44009C3.04179 7.94738 2.98455 7.43894 2.99988 6.93009C2.99988 5.5377 3.553 4.20234 4.53757 3.21777C5.52213 2.23321 6.85749 1.68009 8.24988 1.68009C9.64226 1.68009 10.9776 2.23321 11.9622 3.21777C12.9468 4.20234 13.4999 5.5377 13.4999 6.93009C13.4989 7.43405 13.4282 7.93546 13.2899 8.42009C13.0403 9.26017 12.5829 10.0237 11.9599 10.6401L8.19988 14.3601L4.48988 10.6401C3.87099 10.0301 3.41684 9.27321 3.16988 8.44009ZM8.16988 18.1201C4.16988 18.1201 1.64988 16.7401 1.64988 15.7901C1.64988 15.1101 2.96988 14.2001 5.17988 13.7901L7.57988 16.1801C7.65605 16.2597 7.74766 16.3229 7.84911 16.3659C7.95055 16.4089 8.0597 16.4307 8.16988 16.4301C8.28156 16.4309 8.39227 16.4092 8.49537 16.3663C8.59847 16.3233 8.69183 16.26 8.76988 16.1801L11.1599 13.7901C13.3699 14.2401 14.6899 15.1501 14.6899 15.7901C14.7199 16.7401 12.1799 18.1201 8.19988 18.1201H8.16988Z" fill="#5A5A5A"/>
</g>
<defs>
<clipPath id="clip0">
<rect width="16.4" height="19.8" fill="white" transform="translate(-0.00012207)"/>
</clipPath>
</defs>
</svg>
