<svg width="21" height="20" viewBox="0 0 21 20" fill="none" xmlns="http://www.w3.org/2000/svg">
<path fill-rule="evenodd" clip-rule="evenodd" d="M6.30709 0H14.9771C18.3671 0 20.6371 2.38 20.6371 5.92V14.09C20.6371 17.62 18.3671 20 14.9771 20H6.30709C2.91708 20 0.637085 17.62 0.637085 14.09V5.92C0.637085 2.38 2.91708 0 6.30709 0ZM6.15709 11.2C5.49709 11.2 4.95709 10.66 4.95709 10C4.95709 9.34 5.49709 8.801 6.15709 8.801C6.81709 8.801 7.35709 9.34 7.35709 10C7.35709 10.66 6.81709 11.2 6.15709 11.2ZM9.43709 10C9.43709 10.66 9.97709 11.2 10.6371 11.2C11.2971 11.2 11.8371 10.66 11.8371 10C11.8371 9.34 11.2971 8.801 10.6371 8.801C9.97709 8.801 9.43709 9.34 9.43709 10ZM13.9171 10C13.9171 10.66 14.4571 11.2 15.1171 11.2C15.7771 11.2 16.3071 10.66 16.3071 10C16.3071 9.34 15.7771 8.801 15.1171 8.801C14.4571 8.801 13.9171 9.34 13.9171 10Z" fill="#F9004B"/>
</svg>
