<svg width="11" height="14" viewBox="0 0 11 14" fill="none" xmlns="http://www.w3.org/2000/svg">
<mask id="mask0" mask-type="alpha" maskUnits="userSpaceOnUse" x="-1" y="8" width="12" height="6">
<path fill-rule="evenodd" clip-rule="evenodd" d="M-0.00012207 8.33057H10.5598V13.2466H-0.00012207V8.33057Z" fill="white"/>
</mask>
<g mask="url(#mask0)">
<path fill-rule="evenodd" clip-rule="evenodd" d="M5.28054 9.33057C2.43988 9.33057 0.999878 9.81857 0.999878 10.7819C0.999878 11.7539 2.43988 12.2466 5.28054 12.2466C8.12054 12.2466 9.55988 11.7586 9.55988 10.7952C9.55988 9.82323 8.12054 9.33057 5.28054 9.33057ZM5.28054 13.2466C3.97454 13.2466 -0.00012207 13.2466 -0.00012207 10.7819C-0.00012207 8.58457 3.01388 8.33057 5.28054 8.33057C6.58654 8.33057 10.5599 8.33057 10.5599 10.7952C10.5599 12.9926 7.54654 13.2466 5.28054 13.2466Z" fill="#5A5A5A"/>
</g>
<mask id="mask1" mask-type="alpha" maskUnits="userSpaceOnUse" x="1" y="0" width="8" height="8">
<path fill-rule="evenodd" clip-rule="evenodd" d="M1.73975 0H8.81977V7.07907H1.73975V0Z" fill="white"/>
</mask>
<g mask="url(#mask1)">
<path fill-rule="evenodd" clip-rule="evenodd" d="M5.28042 0.951514C3.85309 0.951514 2.69176 2.11218 2.69176 3.53951C2.68709 4.96218 3.83976 6.12218 5.26109 6.12751L5.28042 6.60351V6.12751C6.70709 6.12751 7.86776 4.96618 7.86776 3.53951C7.86776 2.11218 6.70709 0.951514 5.28042 0.951514ZM5.28043 7.07885H5.2591C3.3111 7.07285 1.7331 5.48418 1.73977 3.53751C1.73977 1.58751 3.32777 -0.000488281 5.28043 -0.000488281C7.23243 -0.000488281 8.81977 1.58751 8.81977 3.53951C8.81977 5.49151 7.23243 7.07885 5.28043 7.07885Z" fill="#5A5A5A"/>
</g>
</svg>
