<svg width="11" height="12" viewBox="0 0 11 12" fill="none" xmlns="http://www.w3.org/2000/svg">
<g id="Iconly/Bold/Buy">
<g id="Buy">
<path id="Buy_2" fill-rule="evenodd" clip-rule="evenodd" d="M6.47207 5.19753H7.74066C7.93301 5.19753 8.08415 5.037 8.08415 4.84342C8.08415 4.64512 7.93301 4.48931 7.74066 4.48931H6.47207C6.27972 4.48931 6.12859 4.64512 6.12859 4.84342C6.12859 5.037 6.27972 5.19753 6.47207 5.19753ZM9.24695 2.74286C9.52631 2.74286 9.7095 2.84201 9.89269 3.05919C10.0759 3.27638 10.1079 3.58799 10.0667 3.87081L9.63165 6.96807C9.54921 7.56345 9.0546 8.00207 8.47297 8.00207H3.47644C2.86733 8.00207 2.36356 7.52095 2.31318 6.89772L1.89185 1.75088L1.2003 1.62813C1.01711 1.59508 0.888877 1.41094 0.920935 1.22208C0.952994 1.02897 1.1316 0.901023 1.31937 0.929824L2.41165 1.09932C2.56736 1.12812 2.68185 1.25985 2.69559 1.42038L2.78261 2.47798C2.79635 2.62954 2.91542 2.74286 3.06198 2.74286H9.24695ZM3.40388 8.7483C3.01918 8.7483 2.70776 9.06936 2.70776 9.46596C2.70776 9.85783 3.01918 10.1789 3.40388 10.1789C3.784 10.1789 4.09543 9.85783 4.09543 9.46596C4.09543 9.06936 3.784 8.7483 3.40388 8.7483ZM8.55554 8.7483C8.17084 8.7483 7.85941 9.06936 7.85941 9.46596C7.85941 9.85783 8.17084 10.1789 8.55554 10.1789C8.93566 10.1789 9.24708 9.85783 9.24708 9.46596C9.24708 9.06936 8.93566 8.7483 8.55554 8.7483Z" fill="#5A5A5A"/>
</g>
</g>
</svg>
