<svg width="17" height="18" viewBox="0 0 17 18" fill="none" xmlns="http://www.w3.org/2000/svg">
<path fill-rule="evenodd" clip-rule="evenodd" d="M11.2125 2.30919C11.6571 2.30919 12.101 2.3719 12.523 2.51351C15.1235 3.35897 16.0605 6.21238 15.2778 8.70647C14.8339 9.98099 14.1082 11.1442 13.1578 12.0946C11.7973 13.4121 10.3044 14.5817 8.6973 15.5892L8.52116 15.6956L8.33798 15.5821C6.72528 14.5817 5.22389 13.4121 3.85073 12.0876C2.90664 11.1371 2.18025 9.98099 1.72934 8.70647C0.933207 6.21238 1.87025 3.35897 4.49891 2.49872C4.70323 2.42826 4.91389 2.37894 5.12525 2.35147H5.2098C5.40778 2.32258 5.60434 2.30919 5.80162 2.30919H5.87912C6.32298 2.32258 6.75275 2.40008 7.16914 2.54169H7.21071C7.23889 2.55508 7.26003 2.56988 7.27412 2.58326C7.42982 2.63329 7.57707 2.68965 7.71798 2.76715L7.98571 2.88692C8.0504 2.92142 8.12301 2.97414 8.18577 3.01971C8.22553 3.04858 8.26134 3.07457 8.28866 3.09124C8.30016 3.09802 8.31184 3.10484 8.32362 3.11172C8.38404 3.14698 8.44696 3.18372 8.50002 3.2244C9.28277 2.62624 10.2332 2.30215 11.2125 2.30919ZM13.0866 7.38192C13.3755 7.37417 13.6221 7.14238 13.6432 6.84576V6.76192C13.6643 5.77485 13.0662 4.88079 12.1566 4.53556C11.8678 4.43622 11.5507 4.59192 11.445 4.88783C11.3464 5.18374 11.5014 5.50783 11.7973 5.61281C12.2489 5.7819 12.5512 6.22647 12.5512 6.71894V6.74079C12.5378 6.90213 12.5864 7.05783 12.685 7.1776C12.7837 7.29738 12.9316 7.36713 13.0866 7.38192Z" fill="#5A5A5A"/>
</svg>
